<svg version="1.0" xmlns="http://www.w3.org/2000/svg"
 width="512.000000pt" height="512.000000pt" viewBox="0 0 512.000000 512.000000"
 preserveAspectRatio="xMidYMid meet">
<g transform="translate(0.000000,512.000000) scale(0.100000,-0.100000)"
fill="#000000" stroke="none">
<path d="M2460 5114 c-585 -37 -1075 -222 -1510 -570 -384 -309 -697 -776
-838 -1254 -71 -239 -104 -474 -104 -730 0 -415 90 -791 277 -1160 121 -237
279 -454 470 -645 611 -611 1485 -872 2332 -695 646 135 1235 534 1600 1085
385 582 514 1259 373 1945 -79 380 -269 776 -522 1087 -81 100 -261 281 -362
363 -323 262 -733 453 -1136 529 -174 33 -442 53 -580 45z m-7 -361 c4 -137 7
-338 7 -447 l0 -199 -57 60 c-69 72 -160 133 -246 163 -87 31 -258 38 -346 15
-201 -52 -372 -212 -431 -403 -100 -321 86 -660 415 -758 95 -28 249 -24 350
9 149 49 275 156 348 294 58 111 67 166 67 422 l0 224 106 -6 c181 -12 370
-58 532 -133 100 -45 229 -125 280 -172 l42 -39 0 -610 0 -610 -77 -64 c-43
-35 -248 -204 -456 -376 l-378 -313 -209 176 -210 176 0 164 0 164 380 0 c367
0 381 1 400 20 11 11 20 29 20 40 0 11 -9 29 -20 40 -19 19 -33 20 -400 20
l-380 0 0 185 c0 172 -1 186 -20 205 -24 24 -38 25 -68 4 -21 -15 -22 -20 -22
-205 l0 -189 -425 0 -425 0 0 600 0 600 -385 2 -386 3 71 105 c262 386 612
682 1030 870 252 113 610 202 841 209 l46 1 6 -247z m417 223 c217 -29 493
-106 648 -179 l67 -32 -500 -3 c-275 -1 -506 0 -512 3 -9 3 -13 36 -13 115 l0
110 103 0 c56 0 149 -7 207 -14z m-785 -741 c85 -23 152 -62 220 -130 98 -97
145 -211 145 -345 0 -132 -55 -255 -156 -349 -75 -71 -144 -106 -248 -127
-321 -66 -627 223 -577 546 29 191 174 354 360 406 64 17 186 17 256 -1z
m-966 -952 c0 -380 -1 -406 -16 -383 -9 14 -48 57 -87 95 -115 113 -244 165
-411 165 -156 0 -286 -48 -396 -148 l-61 -56 7 45 c26 163 109 421 193 602
l41 87 365 0 366 0 -1 -407z m-550 -261 c-55 -35 -110 -99 -140 -161 -34 -70
-38 -207 -9 -283 30 -80 104 -159 188 -200 61 -30 74 -33 162 -33 84 0 102 3
157 29 40 18 81 48 113 82 57 60 61 53 30 -49 -24 -77 -85 -173 -143 -222 -62
-53 -166 -101 -248 -115 -230 -39 -469 111 -539 337 -29 94 -27 226 4 314 65
186 246 327 420 328 l50 1 -45 -28z m1511 -721 l0 -189 218 -182 c119 -101
217 -187 217 -191 0 -4 -86 -80 -192 -168 -265 -222 -315 -291 -350 -491 -27
-151 5 -301 92 -430 87 -128 213 -211 383 -251 85 -21 102 -21 657 -15 648 8
618 13 412 -74 -308 -130 -612 -191 -957 -191 -664 0 -1256 245 -1726 715
-259 260 -439 538 -566 876 -39 103 -99 322 -113 410 l-7 45 49 -47 c112 -109
247 -162 408 -162 175 0 310 59 435 190 77 81 122 164 148 271 l17 73 438 0
437 0 0 -189z m2915 87 c-29 -337 -103 -612 -240 -893 -170 -346 -455 -683
-788 -932 l-98 -73 -672 0 c-739 0 -739 0 -865 62 -135 67 -231 204 -254 364
-10 69 -9 94 5 165 18 94 62 191 104 231 80 75 1347 1127 1353 1123 4 -3 10
-24 14 -47 21 -132 155 -292 306 -366 122 -60 192 -75 322 -70 96 4 113 8 171
37 35 18 192 131 348 251 156 121 288 219 292 219 5 1 5 -32 2 -71z"/>
<path d="M1853 4125 c-138 -43 -239 -159 -262 -302 -26 -163 57 -322 207 -395
60 -30 75 -33 157 -33 133 0 227 45 300 145 153 209 57 505 -187 582 -69 21
-155 22 -215 3z"/>
</g>
</svg>
